<svg width="215" height="20" viewBox="0 0 215 20" fill="none" xmlns="http://www.w3.org/2000/svg">
<path d="M10.9419 5.53599C10.4299 5.11999 9.91794 4.81599 9.40594 4.62399C8.89394 4.41599 8.39794 4.31199 7.91794 4.31199C7.30994 4.31199 6.81394 4.45599 6.42994 4.74399C6.04594 5.03199 5.85394 5.40799 5.85394 5.87199C5.85394 6.19199 5.94994 6.45599 6.14194 6.66399C6.33394 6.87199 6.58194 7.05599 6.88594 7.21599C7.20594 7.35999 7.55794 7.48799 7.94194 7.59999C8.34194 7.71199 8.73394 7.83199 9.11794 7.95999C10.6539 8.47199 11.7739 9.15999 12.4779 10.024C13.1979 10.872 13.5579 11.984 13.5579 13.36C13.5579 14.288 13.3979 15.128 13.0779 15.88C12.7739 16.632 12.3179 17.28 11.7099 17.824C11.1179 18.352 10.3819 18.76 9.50194 19.048C8.63794 19.352 7.65394 19.504 6.54994 19.504C4.26194 19.504 2.14194 18.824 0.189941 17.464L2.20594 13.672C2.90994 14.296 3.60594 14.76 4.29394 15.064C4.98194 15.368 5.66194 15.52 6.33394 15.52C7.10194 15.52 7.66994 15.344 8.03794 14.992C8.42194 14.64 8.61394 14.24 8.61394 13.792C8.61394 13.52 8.56594 13.288 8.46994 13.096C8.37394 12.888 8.21394 12.704 7.98994 12.544C7.76594 12.368 7.46994 12.208 7.10194 12.064C6.74994 11.92 6.31794 11.76 5.80594 11.584C5.19794 11.392 4.59794 11.184 4.00594 10.96C3.42994 10.72 2.90994 10.408 2.44594 10.024C1.99794 9.63999 1.62994 9.15999 1.34194 8.58399C1.06994 7.99199 0.933941 7.24799 0.933941 6.35199C0.933941 5.45599 1.07794 4.64799 1.36594 3.92799C1.66994 3.19199 2.08594 2.56799 2.61394 2.05599C3.15794 1.52799 3.81394 1.11999 4.58194 0.831994C5.36594 0.543994 6.23794 0.399994 7.19794 0.399994C8.09394 0.399994 9.02994 0.527994 10.0059 0.783993C10.9819 1.02399 11.9179 1.38399 12.8139 1.86399L10.9419 5.53599Z" fill="#D0D0D0"/>
<path d="M36.6096 8.87199H45.9456C45.9456 9.83199 45.9056 10.704 45.8256 11.488C45.7456 12.272 45.5856 13 45.3456 13.672C45.0096 14.616 44.5536 15.456 43.9776 16.192C43.4016 16.912 42.7216 17.52 41.9376 18.016C41.1696 18.496 40.3216 18.864 39.3936 19.12C38.4656 19.376 37.4896 19.504 36.4656 19.504C35.0576 19.504 33.7696 19.272 32.6016 18.808C31.4496 18.344 30.4576 17.696 29.6256 16.864C28.7936 16.016 28.1456 15.008 27.6816 13.84C27.2176 12.656 26.9856 11.352 26.9856 9.92799C26.9856 8.51999 27.2096 7.23199 27.6576 6.06399C28.1216 4.87999 28.7696 3.87199 29.6016 3.03999C30.4496 2.20799 31.4656 1.55999 32.6496 1.09599C33.8336 0.631994 35.1536 0.399994 36.6096 0.399994C38.4976 0.399994 40.1536 0.807994 41.5776 1.62399C43.0016 2.43999 44.1296 3.70399 44.9616 5.41599L40.4976 7.26399C40.0816 6.27199 39.5376 5.55999 38.8656 5.12799C38.2096 4.69599 37.4576 4.47999 36.6096 4.47999C35.9056 4.47999 35.2656 4.61599 34.6896 4.88799C34.1136 5.14399 33.6176 5.51999 33.2016 6.01599C32.8016 6.49599 32.4816 7.07999 32.2416 7.76799C32.0176 8.45599 31.9056 9.22399 31.9056 10.072C31.9056 10.84 32.0016 11.552 32.1936 12.208C32.4016 12.864 32.7056 13.432 33.1056 13.912C33.5056 14.392 34.0016 14.768 34.5936 15.04C35.1856 15.296 35.8736 15.424 36.6576 15.424C37.1216 15.424 37.5696 15.376 38.0016 15.28C38.4336 15.168 38.8176 15 39.1536 14.776C39.5056 14.536 39.7936 14.232 40.0176 13.864C40.2416 13.496 40.3936 13.048 40.4736 12.52H36.6096V8.87199Z" fill="#D0D0D0"/>
<path d="M48.9188 19V0.903995H53.6228L62.3108 11.968V0.903995H66.9908V19H62.3108L53.6228 7.93599V19H48.9188Z" fill="#D0D0D0"/>
<path d="M85.3202 5.53599C84.8082 5.11999 84.2962 4.81599 83.7842 4.62399C83.2722 4.41599 82.7762 4.31199 82.2962 4.31199C81.6882 4.31199 81.1922 4.45599 80.8082 4.74399C80.4242 5.03199 80.2322 5.40799 80.2322 5.87199C80.2322 6.19199 80.3282 6.45599 80.5202 6.66399C80.7122 6.87199 80.9602 7.05599 81.2642 7.21599C81.5842 7.35999 81.9362 7.48799 82.3202 7.59999C82.7202 7.71199 83.1122 7.83199 83.4962 7.95999C85.0322 8.47199 86.1522 9.15999 86.8562 10.024C87.5762 10.872 87.9362 11.984 87.9362 13.36C87.9362 14.288 87.7762 15.128 87.4562 15.88C87.1522 16.632 86.6962 17.28 86.0882 17.824C85.4962 18.352 84.7602 18.76 83.8802 19.048C83.0162 19.352 82.0322 19.504 80.9282 19.504C78.6402 19.504 76.5202 18.824 74.5682 17.464L76.5842 13.672C77.2882 14.296 77.9842 14.76 78.6722 15.064C79.3602 15.368 80.0402 15.52 80.7122 15.52C81.4802 15.52 82.0482 15.344 82.4162 14.992C82.8002 14.64 82.9922 14.24 82.9922 13.792C82.9922 13.52 82.9442 13.288 82.8482 13.096C82.7522 12.888 82.5922 12.704 82.3682 12.544C82.1442 12.368 81.8482 12.208 81.4802 12.064C81.1282 11.92 80.6962 11.76 80.1842 11.584C79.5762 11.392 78.9762 11.184 78.3842 10.96C77.8082 10.72 77.2882 10.408 76.8242 10.024C76.3762 9.63999 76.0082 9.15999 75.7202 8.58399C75.4482 7.99199 75.3122 7.24799 75.3122 6.35199C75.3122 5.45599 75.4562 4.64799 75.7442 3.92799C76.0482 3.19199 76.4642 2.56799 76.9922 2.05599C77.5362 1.52799 78.1922 1.11999 78.9602 0.831994C79.7442 0.543994 80.6162 0.399994 81.5762 0.399994C82.4722 0.399994 83.4082 0.527994 84.3842 0.783993C85.3602 1.02399 86.2962 1.38399 87.1922 1.86399L85.3202 5.53599Z" fill="#D0D0D0"/>
<path d="M95.2913 10.312L88.6913 0.903995H94.3073L97.6673 5.84799L101.003 0.903995H106.619L99.9953 10.312V19H95.2913V10.312Z" fill="#D0D0D0"/>
<path d="M117.359 5.53599C116.847 5.11999 116.335 4.81599 115.823 4.62399C115.311 4.41599 114.815 4.31199 114.335 4.31199C113.727 4.31199 113.231 4.45599 112.847 4.74399C112.463 5.03199 112.271 5.40799 112.271 5.87199C112.271 6.19199 112.367 6.45599 112.559 6.66399C112.751 6.87199 112.999 7.05599 113.303 7.21599C113.623 7.35999 113.975 7.48799 114.359 7.59999C114.759 7.71199 115.151 7.83199 115.535 7.95999C117.071 8.47199 118.191 9.15999 118.895 10.024C119.615 10.872 119.975 11.984 119.975 13.36C119.975 14.288 119.815 15.128 119.495 15.88C119.191 16.632 118.735 17.28 118.127 17.824C117.535 18.352 116.799 18.76 115.919 19.048C115.055 19.352 114.071 19.504 112.967 19.504C110.679 19.504 108.559 18.824 106.607 17.464L108.623 13.672C109.327 14.296 110.023 14.76 110.711 15.064C111.399 15.368 112.079 15.52 112.751 15.52C113.519 15.52 114.087 15.344 114.455 14.992C114.839 14.64 115.031 14.24 115.031 13.792C115.031 13.52 114.983 13.288 114.887 13.096C114.791 12.888 114.631 12.704 114.407 12.544C114.183 12.368 113.887 12.208 113.519 12.064C113.167 11.92 112.735 11.76 112.223 11.584C111.615 11.392 111.015 11.184 110.423 10.96C109.847 10.72 109.327 10.408 108.863 10.024C108.415 9.63999 108.047 9.15999 107.759 8.58399C107.487 7.99199 107.351 7.24799 107.351 6.35199C107.351 5.45599 107.495 4.64799 107.783 3.92799C108.087 3.19199 108.503 2.56799 109.031 2.05599C109.575 1.52799 110.231 1.11999 110.999 0.831994C111.783 0.543994 112.655 0.399994 113.615 0.399994C114.511 0.399994 115.447 0.527994 116.423 0.783993C117.399 1.02399 118.335 1.38399 119.231 1.86399L117.359 5.53599Z" fill="#D0D0D0"/>
<path d="M129.92 4.88799V19H125.216V4.88799H121.352V0.903995H133.784V4.88799H129.92Z" fill="#D0D0D0"/>
<path d="M146.172 4.88799H140.58V7.91199H145.86V11.896H140.58V15.016H146.172V19H135.876V0.903995H146.172V4.88799Z" fill="#D0D0D0"/>
<path d="M148.748 19L151.82 0.903995H156.476L160.1 10.552L163.7 0.903995H168.356L171.428 19H166.748L165.188 8.58399L160.916 19H159.044L154.988 8.58399L153.428 19H148.748Z" fill="#D0D0D0"/>
<path d="M178.314 19L181.386 0.903995H186.042L189.666 10.552L193.266 0.903995H197.922L200.994 19H196.314L194.754 8.58399L190.482 19H188.61L184.554 8.58399L182.994 19H178.314Z" fill="#D0D0D0"/>
<path d="M214.27 4.88799H208.678V7.91199H213.958V11.896H208.678V15.016H214.27V19H203.974V0.903995H214.27V4.88799Z" fill="#D0D0D0"/>
<path d="M15.9999 0.951991H24.9999V4.25659H22.8577V15.7476H24.9999V19.048H15.9999V15.7476H18.1537V4.25659H15.9999V0.951991Z" fill="#D0D0D0"/>
</svg>
