<svg width="64" height="64" viewBox="0 0 64 64" fill="none" xmlns="http://www.w3.org/2000/svg">
<rect x="7" y="7" width="50" height="50" rx="25" fill="white"/>
<rect x="7" y="7" width="50" height="50" rx="25" stroke="#03BB85" stroke-width="14"/>
<path d="M37.4241 28.952C36.3361 27.624 34.9921 26.96 33.3921 26.96C32.6881 26.96 32.0321 27.088 31.4241 27.344C30.8321 27.6 30.3201 27.952 29.8881 28.4C29.4561 28.832 29.1121 29.352 28.8561 29.96C28.6161 30.568 28.496 31.224 28.496 31.928C28.496 32.648 28.6161 33.312 28.8561 33.92C29.1121 34.528 29.4561 35.056 29.8881 35.504C30.3361 35.952 30.8561 36.304 31.4481 36.56C32.0401 36.816 32.68 36.944 33.368 36.944C34.8721 36.944 36.2241 36.304 37.4241 35.024V40.592L36.9441 40.76C36.2241 41.016 35.5521 41.2 34.9281 41.312C34.3041 41.44 33.6881 41.504 33.0801 41.504C31.8321 41.504 30.6321 41.272 29.4801 40.808C28.3441 40.328 27.3361 39.664 26.456 38.816C25.592 37.952 24.896 36.936 24.368 35.768C23.84 34.584 23.576 33.296 23.576 31.904C23.576 30.512 23.832 29.24 24.344 28.088C24.872 26.92 25.568 25.92 26.432 25.088C27.312 24.24 28.3281 23.584 29.4801 23.12C30.6321 22.64 31.8401 22.4 33.1041 22.4C33.8241 22.4 34.5281 22.48 35.2161 22.64C35.9201 22.784 36.6561 23.016 37.4241 23.336V28.952Z" fill="black"/>
</svg>
