<svg width="64" height="64" viewBox="0 0 64 64" fill="none" xmlns="http://www.w3.org/2000/svg">
<rect x="7" y="7" width="50" height="50" rx="25" fill="white"/>
<rect x="7" y="7" width="50" height="50" rx="25" stroke="#FF9500" stroke-width="14"/>
<path d="M32.1454 30.872H41.4814C41.4814 31.832 41.4414 32.704 41.3614 33.488C41.2814 34.272 41.1214 35 40.8814 35.672C40.5454 36.616 40.0894 37.456 39.5134 38.192C38.9374 38.912 38.2574 39.52 37.4734 40.016C36.7054 40.496 35.8574 40.864 34.9294 41.12C34.0014 41.376 33.0254 41.504 32.0014 41.504C30.5934 41.504 29.3054 41.272 28.1374 40.808C26.9854 40.344 25.9934 39.696 25.1614 38.864C24.3294 38.016 23.6814 37.008 23.2174 35.84C22.7534 34.656 22.5214 33.352 22.5214 31.928C22.5214 30.52 22.7454 29.232 23.1934 28.064C23.6574 26.88 24.3054 25.872 25.1374 25.04C25.9854 24.208 27.0014 23.56 28.1854 23.096C29.3694 22.632 30.6894 22.4 32.1454 22.4C34.0334 22.4 35.6894 22.808 37.1134 23.624C38.5374 24.44 39.6654 25.704 40.4974 27.416L36.0334 29.264C35.6174 28.272 35.0734 27.56 34.4014 27.128C33.7454 26.696 32.9934 26.48 32.1454 26.48C31.4414 26.48 30.8014 26.616 30.2254 26.888C29.6494 27.144 29.1534 27.52 28.7374 28.016C28.3374 28.496 28.0174 29.08 27.7774 29.768C27.5534 30.456 27.4414 31.224 27.4414 32.072C27.4414 32.84 27.5374 33.552 27.7294 34.208C27.9374 34.864 28.2414 35.432 28.6414 35.912C29.0414 36.392 29.5374 36.768 30.1294 37.04C30.7214 37.296 31.4094 37.424 32.1934 37.424C32.6574 37.424 33.1054 37.376 33.5374 37.28C33.9694 37.168 34.3534 37 34.6894 36.776C35.0414 36.536 35.3294 36.232 35.5534 35.864C35.7774 35.496 35.9294 35.048 36.0094 34.52H32.1454V30.872Z" fill="black"/>
</svg>
