<svg width="64" height="64" viewBox="0 0 64 64" fill="none" xmlns="http://www.w3.org/2000/svg">
<rect x="7" y="7" width="50" height="50" rx="25" fill="white"/>
<rect x="7" y="7" width="50" height="50" rx="25" stroke="#ABBA41" stroke-width="14"/>
<path d="M36.0742 27.536C35.5622 27.12 35.0502 26.816 34.5382 26.624C34.0262 26.416 33.5302 26.312 33.0502 26.312C32.4422 26.312 31.9462 26.456 31.5622 26.744C31.1782 27.032 30.9862 27.408 30.9862 27.872C30.9862 28.192 31.0822 28.456 31.2742 28.664C31.4662 28.872 31.7142 29.056 32.0182 29.216C32.3382 29.36 32.6902 29.488 33.0742 29.6C33.4742 29.712 33.8662 29.832 34.2502 29.96C35.7862 30.472 36.9062 31.16 37.6102 32.024C38.3302 32.872 38.6902 33.984 38.6902 35.36C38.6902 36.288 38.5302 37.128 38.2102 37.88C37.9062 38.632 37.4502 39.28 36.8422 39.824C36.2502 40.352 35.5142 40.76 34.6342 41.048C33.7702 41.352 32.7862 41.504 31.6822 41.504C29.3942 41.504 27.2742 40.824 25.3222 39.464L27.3382 35.672C28.0422 36.296 28.7382 36.76 29.4262 37.064C30.1142 37.368 30.7942 37.52 31.4662 37.52C32.2342 37.52 32.8022 37.344 33.1702 36.992C33.5542 36.64 33.7462 36.24 33.7462 35.792C33.7462 35.52 33.6982 35.288 33.6022 35.096C33.5062 34.888 33.3462 34.704 33.1222 34.544C32.8982 34.368 32.6022 34.208 32.2342 34.064C31.8822 33.92 31.4502 33.76 30.9382 33.584C30.3302 33.392 29.7302 33.184 29.1382 32.96C28.5622 32.72 28.0422 32.408 27.5782 32.024C27.1302 31.64 26.7622 31.16 26.4742 30.584C26.2022 29.992 26.0662 29.248 26.0662 28.352C26.0662 27.456 26.2102 26.648 26.4982 25.928C26.8022 25.192 27.2182 24.568 27.7462 24.056C28.2902 23.528 28.9462 23.12 29.7142 22.832C30.4982 22.544 31.3702 22.4 32.3302 22.4C33.2262 22.4 34.1622 22.528 35.1382 22.784C36.1142 23.024 37.0502 23.384 37.9462 23.864L36.0742 27.536Z" fill="black"/>
</svg>
